<svg clip-rule="evenodd" fill-rule="evenodd" stroke-linejoin="round" stroke-miterlimit="2" viewBox="0 0 37 36" >
    <path class="svg_lang" d="M7.867 13.37h2.695l-1.35-4.38-1.345 4.38z" fill-rule="nonzero"/>
    <path class="svg_lang" d="M12.898.01H3.684A3.703 3.703 0 00-.002 3.696v31.327L11.055 24h8.292L12.897.01zm-1.77 15.203H7.3l-.852 2.764H4.605L8.291 6h1.842l3.686 11.978h-1.843l-.847-2.764zM33.271.01h-18.53L21.19 24H33.27c2.022 0 3.686-1.697 3.686-3.72V3.697A3.703 3.703 0 0033.27.01zM26.718 6h1.843v1.842h-1.843V6zm5.528 11.977a12.355 12.355 0 01-4.901-.967c-1.348.639-2.821.97-4.312.967v-1.842a8.254 8.254 0 002.303-.323c-1.423-1.133-2.303-2.621-2.303-4.284h1.842c0 1.326.959 2.538 2.451 3.39a6.244 6.244 0 003.078-5.233h-7.371V7.842h9.213v1.843a7.905 7.905 0 01-2.934 6.049c.955.268 1.942.403 2.934.4v1.843z" fill-rule="nonzero"/>
</svg>